<?xml version="1.0" encoding="UTF-8"?>
<svg id="Layer_1" data-name="Layer 1" xmlns="http://www.w3.org/2000/svg" viewBox="0 0 99.43 96.51">
  <defs>
    <style>
      .cls-1 {
        fill: #963296;
      }
    </style>
  </defs>
  <path class="cls-1" d="M71.55,20.96h0s-35.12.61-35.63.63c-2.2.1-4.11,1.24-5.75,2.88-.63.63-1.21,1.33-1.75,2.08-1.66,2.28-2.94,4.97-3.84,7.23-1.09,2.74-1.64,4.86-1.64,4.86h2.69s.13-2.62,1.69-4.86c.66-.95,1.58-1.83,2.85-2.42.93-.42,2.04-.69,3.38-.71,1.43-.02,2.71-.04,3.86-.05,3.52-.05,5.78-.08,7.23-.1,2.6-.04,2.61-.04,2.61-.04,0,0-.25,1.24-.65,3.31-.36,1.84-.83,4.35-1.36,7.23-.19,1.06-.39,2.17-.59,3.31-.22,1.27-.45,2.58-.67,3.92-.4,2.36-.79,4.8-1.15,7.23-.26,1.71-.5,3.41-.72,5.07-.1.75-.17,1.47-.22,2.16-.21,2.85-.05,5.24.33,7.23.53,2.8,1.49,4.81,2.43,6.21.26.39.52.73.77,1.02,1.01,1.21,1.84,1.69,1.84,1.69,0,0,1.86,1.2,4.63,1.62,2.04.31,4.57.19,7.23-1.13.45-.22.9-.48,1.36-.78.64-.41,1.22-.89,1.75-1.4,1.98-1.92,3.28-4.46,4.12-6.86.04-.12.08-.25.13-.37,1.25-3.73,1.44-7.02,1.44-7.02h-2.19c.07.23-.04,1.13-.97,4.1-.4,1.27-.99,2.22-1.66,2.92-1.37,1.44-3.05,1.86-3.97,1.98-.42.06-.68.05-.68.05,0,0-2.29.14-4.35-2.04-.67-.7-1.31-1.65-1.85-2.92-.14-.34-.26-.79-.36-1.33-.15-.81-.24-1.82-.3-2.99-.09-2.03-.06-4.53.05-7.23.06-1.48.15-3.03.25-4.59.06-.88.12-1.76.19-2.65.19-2.49.4-4.96.62-7.23.27-2.84.54-5.37.75-7.23.23-2.05.38-3.31.38-3.31h17.73v-9.52h0"/>
  <path class="cls-1" d="M98.89,41.02c-.37-2.48-.93-4.89-1.67-7.23-.55-1.76-1.21-3.47-1.95-5.14-.32-.71-.65-1.41-1-2.1-1.28-2.55-2.78-4.97-4.48-7.23-.56-.75-1.16-1.48-1.76-2.2-1.52-1.8-3.17-3.48-4.93-5.04-.75-.66-1.52-1.3-2.3-1.91-2.26-1.76-4.68-3.33-7.23-4.67-.42-.22-.85-.45-1.28-.66-1.92-.93-3.91-1.74-5.95-2.41-2.34-.77-4.75-1.37-7.23-1.78-2.36-.39-4.77-.61-7.23-.64-.23,0-.46-.02-.69-.02-2.22,0-4.4.16-6.54.45-2.48.34-4.89.86-7.23,1.55-2.5.74-4.92,1.68-7.23,2.8-.04.02-.07.04-.11.06-2.51,1.22-4.89,2.66-7.13,4.28-1.28.93-2.51,1.91-3.69,2.95-1.24,1.09-2.42,2.25-3.54,3.46-1.11,1.2-2.17,2.46-3.15,3.77-1.53,2.03-2.89,4.2-4.08,6.46-.13.25-.26.51-.39.77-1.17,2.31-2.16,4.73-2.95,7.23-.73,2.34-1.3,4.76-1.67,7.23-.35,2.36-.54,4.77-.54,7.23h0c0,2.46.19,4.87.54,7.23.37,2.48.93,4.89,1.67,7.23.79,2.51,1.78,4.92,2.95,7.23.13.26.26.52.39.77,1.19,2.27,2.56,4.43,4.08,6.46.99,1.31,2.04,2.57,3.15,3.77,1.12,1.21,2.3,2.37,3.54,3.46,1.18,1.04,2.41,2.03,3.69,2.95,2.24,1.62,4.62,3.06,7.13,4.28.04.02.07.04.11.06,2.31,1.12,4.73,2.05,7.23,2.8,2.34.7,4.76,1.22,7.23,1.55,2.14.29,4.32.45,6.54.45.23,0,.46-.01.69-.02,2.46-.03,4.88-.25,7.23-.64,2.38-.39,4.78-.97,7.23-1.78,2.03-.67,4.01-1.47,5.95-2.41.43-.21.86-.43,1.28-.66,2.56-1.34,4.97-2.91,7.23-4.67.79-.61,1.56-1.25,2.3-1.91,1.76-1.56,3.41-3.24,4.93-5.04.61-.72,1.2-1.45,1.76-2.2,1.7-2.26,3.19-4.69,4.48-7.23.35-.69.68-1.39,1-2.1.74-1.67,1.4-3.38,1.95-5.14.73-2.34,1.3-4.76,1.67-7.23.35-2.36.54-4.77.54-7.23s-.19-4.87-.54-7.23ZM73.57,84.62c-2.28,1.41-4.7,2.6-7.23,3.56-2.32.88-4.74,1.56-7.23,2.03-2.35.44-4.77.69-7.23.73-.23,0-.46.02-.69.02-2.22,0-4.41-.17-6.54-.5-2.49-.38-4.9-.99-7.23-1.78-2.53-.86-4.95-1.95-7.23-3.24-.57-.32-1.14-.66-1.69-1.01-1.96-1.23-3.81-2.62-5.54-4.14-1.11-.98-2.16-2.01-3.16-3.09-1.48-1.61-2.85-3.33-4.07-5.15-.46-.68-.89-1.38-1.31-2.08-1.35-2.28-2.5-4.7-3.41-7.23-.84-2.32-1.47-4.74-1.9-7.23-.4-2.35-.62-4.77-.62-7.23h0c0-2.47.22-4.88.62-7.23.43-2.49,1.06-4.91,1.9-7.23.91-2.53,2.06-4.95,3.41-7.23.42-.71.85-1.4,1.31-2.08,1.22-1.82,2.59-3.54,4.07-5.15,1-1.08,2.06-2.11,3.16-3.09,1.73-1.52,3.58-2.91,5.54-4.14.56-.35,1.12-.69,1.69-1.01,2.29-1.3,4.71-2.38,7.23-3.24,2.33-.79,4.74-1.4,7.23-1.78,2.13-.33,4.32-.5,6.54-.5.23,0,.46.01.69.02,2.47.04,4.88.29,7.23.73,2.49.47,4.91,1.15,7.23,2.03,2.54.96,4.96,2.16,7.23,3.56.1.06.2.13.3.2,2.5,1.57,4.82,3.39,6.93,5.43.61.59,1.2,1.19,1.77,1.81,2.04,2.21,3.84,4.63,5.38,7.23.03.05.06.1.08.14,1.31,2.24,2.43,4.61,3.33,7.09.84,2.32,1.47,4.74,1.9,7.23.4,2.35.62,4.77.62,7.23s-.22,4.88-.62,7.23c-.43,2.49-1.06,4.91-1.9,7.23-.89,2.48-2.01,4.85-3.33,7.09-.03.05-.06.1-.08.14-1.54,2.6-3.34,5.03-5.38,7.23-.57.62-1.17,1.22-1.77,1.81-2.11,2.04-4.43,3.86-6.93,5.43-.1.06-.2.13-.3.2Z"/>
</svg>