<?xml version="1.0" encoding="UTF-8"?>
<svg id="Layer_1" data-name="Layer 1" xmlns="http://www.w3.org/2000/svg" viewBox="0 0 97.45 92.55">
  <defs>
    <style>
      .cls-1 {
        fill: #963296;
      }
    </style>
  </defs>
  <path class="cls-1" d="M85.2,77.63c2.21-2.39,4.16-5.02,5.83-7.84.03-.05.06-.11.09-.16,1.42-2.43,2.64-5,3.6-7.68.91-2.52,1.59-5.14,2.05-7.84.44-2.55.67-5.16.67-7.84s-.24-5.29-.67-7.84c-.46-2.7-1.15-5.32-2.05-7.84-.97-2.69-2.18-5.25-3.6-7.68-.03-.05-.06-.11-.09-.16-1.67-2.82-3.62-5.45-5.83-7.84-.62-.67-1.26-1.32-1.92-1.96-2.29-2.21-4.8-4.18-7.51-5.88-.11-.07-.22-.14-.33-.21-2.47-1.52-5.09-2.82-7.84-3.86-2.52-.96-5.13-1.7-7.84-2.2-2.55-.48-5.16-.75-7.84-.79-.25,0-.5-.02-.75-.02-2.41,0-4.78.19-7.09.54-2.7.41-5.31,1.07-7.84,1.93-2.74.93-5.36,2.11-7.84,3.52-.62.35-1.23.72-1.84,1.1-2.12,1.34-4.13,2.84-6,4.49-1.2,1.06-2.34,2.17-3.43,3.35-1.61,1.74-3.08,3.61-4.41,5.58-.49.74-.96,1.49-1.42,2.26-1.46,2.47-2.71,5.09-3.69,7.84-.91,2.52-1.59,5.14-2.05,7.84-.44,2.55-.67,5.16-.67,7.84h0c0,2.67.24,5.29.67,7.84.46,2.7,1.15,5.32,2.05,7.84.99,2.74,2.23,5.36,3.69,7.84.45.77.92,1.52,1.42,2.26,1.33,1.97,2.8,3.84,4.41,5.58,1.08,1.18,2.23,2.29,3.43,3.35,1.87,1.65,3.88,3.15,6,4.49.6.38,1.21.74,1.84,1.1,2.48,1.4,5.1,2.58,7.84,3.52,2.52.86,5.14,1.52,7.84,1.93,2.31.35,4.68.54,7.09.54.25,0,.5-.02.75-.02,2.67-.04,5.29-.31,7.84-.79,2.7-.51,5.32-1.25,7.84-2.2,2.75-1.04,5.37-2.34,7.84-3.86.11-.07.22-.14.33-.21,2.7-1.7,5.22-3.67,7.51-5.88.66-.63,1.3-1.28,1.92-1.96ZM73.25,22.76v4.25h-19.22s-.17,1.36-.42,3.59c-.23,2.02-.52,4.76-.81,7.84-.24,2.46-.47,5.14-.67,7.84-.07.96-.14,1.91-.2,2.87-.11,1.69-.2,3.36-.27,4.97-.12,2.93-.15,5.63-.05,7.84.06,1.26.16,2.36.32,3.24.11.58.23,1.07.39,1.44.58,1.38,1.28,2.4,2,3.17,2.23,2.35,4.71,2.21,4.71,2.21,0,0,.29,0,.74-.06.99-.13,2.81-.59,4.3-2.15.73-.76,1.37-1.79,1.8-3.17,1.01-3.22,1.13-4.19,1.05-4.45h2.38s-.2,3.57-1.56,7.61c-.04.13-.09.27-.14.4-.92,2.6-2.32,5.35-4.47,7.44-.58.56-1.21,1.07-1.9,1.52-.49.32-.99.6-1.47.84-2.88,1.43-5.63,1.56-7.84,1.22-3-.45-5.02-1.75-5.02-1.75,0,0-.9-.52-1.99-1.83-.27-.32-.55-.69-.83-1.11-1.02-1.51-2.05-3.7-2.63-6.73-.41-2.16-.59-4.75-.36-7.84.06-.75.13-1.53.24-2.34.24-1.8.5-3.64.78-5.49.39-2.63.82-5.28,1.25-7.84.24-1.45.49-2.87.73-4.25.22-1.24.43-2.44.64-3.59.57-3.13,1.08-5.84,1.47-7.84.44-2.25.71-3.59.71-3.59,0,0,0,0-2.82.04-1.57.02-4.02.05-7.84.11-1.25.02-2.63.04-4.18.06-1.45.02-2.65.31-3.66.77-1.38.63-2.38,1.59-3.09,2.62-1.68,2.43-1.83,5.26-1.83,5.26h-2.92s.59-2.29,1.78-5.26c.98-2.46,2.36-5.37,4.16-7.84.59-.81,1.22-1.57,1.9-2.26,1.77-1.78,3.85-3.02,6.23-3.12.55-.02,1.08-.05,1.61-.07,2.93-.12,5.54-.22,7.84-.3,3.2-.11,5.8-.18,7.84-.23,3.88-.09,5.71-.08,5.71-.08h15.61v6.07Z"/>
</svg>