<?xml version="1.0" encoding="UTF-8"?>
<svg id="Layer_1" data-name="Layer 1" xmlns="http://www.w3.org/2000/svg" viewBox="0 0 93.19 71.08">
  <defs>
    <style>
      .cls-1 {
        fill: #963296;
        stroke: #963296;
        stroke-miterlimit: 10;
      }
    </style>
  </defs>
  <path class="cls-1" d="M54.26,49.65c-.82,1.06-2.44,1.87-3.69,2.31-.18.06-.82.25-.97.2-.24-.08-.15-.68-.69-.61-.32.05-.73.67-1.03.92-.15.12-.74.52-.9.57-.77.21-1.08-.7-2.11-.08-.25.15-.58.58-.79.67-.12.05-.09-.05-.11-.1-.09-.31-.09-1.07-.52-1.08-.25,0-.74.13-.92.29-.39.35-1.17,1.8-1.59,1.86-.14.02-.09-.01-.1-.1-.16-1.13.55-2.68.19-3.75-.12-.35-.45-.44-.78-.34-1.28.4-2.01,2.73-2.51,3.84-.14.31-.45.64-.55.99-.15.56-.23,1.1-.52,1.64-.05.08-.35.46-.43.37.08-.44.14-.9.23-1.34.03-.12.16-.24.18-.44.19-1.34-.03-2.56.68-3.78.55-.95.85-1.85,1.36-2.82,1.08-2.09,1.93-4.34,2.61-6.6.12-.4.15-.96.26-1.34.1-.32.43-.76.52-1.09.39-1.46.76-3.09,1.08-4.57.1-.47.54-1.32.23-1.73-.43-.59-.92-.08-1.17.37-1.07,1.96-1.97,4.03-2.74,6.12-.3.81-.82,1.55-1.1,2.45-.79,2.57-1.42,5.39-1.85,8.05-.15.93-.1,1.53-.5,2.38-1.73,3.66-4,7.48-6.59,10.55-1.12,1.32-2.4,2.84-3.62,4.05-2.72,2.68-5.26,3.82-8.58,1.18-1.94-1.54-3.08-3.53-3.75-5.88-.04-.14-.2-.24-.24-.38-.12-.42-.15-1.05-.25-1.5-1.21-5.78-.21-11.04,1.2-16.65.98-3.86,2.42-7.62,4.2-11.18,1.02-2.05,2.28-4.52,3.82-6.22.23-.26,1.1-1.16,1.47-.91.02.02.26.47.27.51.03.16-.15,1.12-.2,1.34,0,0,0,0,0,0-.17-.02-.15.01-.14.17l.07.04c.01-.05.04-.11.07-.2-.02.09-.05.15-.07.2-.04.14-.1.25-.14.42-.03.13-.06.16-.08.15.02,0,.05-.02.08-.15-.15-.02-.16,0-.14.14.02-.03.03,0,.05,0-.02,0-.04-.03-.05,0-.01.02.01.24-.14.42.01.41.32-.22.56-.21.08-.42.22-.53.35-.94.14-.41.46-1.79.2-2.09-.37-.45-.87-.29-1.36-.11-.99.38-2.28,2.22-2.88,3.12-1.68,2.46-2.84,5.16-4.13,7.83-.04.08-.01.22-.14.28,0,.1-.08.44-.14.49l-.07.14c0,.13-.12.54-.21.63l-.07.14c0,.07-.15.43-.2.54-.21.53-.47,1.07-.64,1.63,0,0,.06.04.05.09-.05.17-.15.57-.33.54,0,.07,0,.14,0,.21,0,.04.06,0,0,.21-.08.3-.2.58-.28.91-.04.16,0,.47-.21.42-.02.24-.01.59-.28.63.01.03,0,.1,0,.14,0,.02.07.04.06.15-.02.17-.15.53-.2.75-1.38,6.27-2.82,13.18-.3,19.38.29.7.55,1.49.9,2.17.05.1.5.53.52.61.02.11-.03.26.02.35.02.03.36.2.43.3.31.4.62.84,1.01,1.22.6.57,1.33,1.05,2.06,1.43.33.17.4.16.67.24,1.88.51,3.11.62,4.87-.28,1.32-.67,2.71-2.15,3.74-3.24,2.72-2.87,5.17-5.85,7.25-9.21.41-.66.6-1.27.93-1.93.04-.08.4-.69.43-.72,0,0,.15-.03.14.03,0,.62-.17,1.22-.27,1.82-.1.62-.16,1.31-.31,1.93-.09.37-.69,1.41-.15,1.52.81.16.9-1.11,1.12-1.6.12-.26.51-.65.6-.86.11-.24.25-.77.37-1.1.33-.88.79-2.24,1.21-3.05.16-.32.6-.81.81-1.14.26-.42.31-1.06.88-1.11-.09,1.1-.5,2.69-.07,3.73.25.61.93.6,1.36.18.22-.21,1.3-1.84,1.57-1.61.03.03.17.8.28.87.06.04.55.11.66.1.57-.06.97-1.17,1.59-1.1.21.02.47.18.66.19.41.03,1.14-.24,1.52-.43.24-.12.78-.57.93-.6.32-.07.35.09.55.12.13.02,1.62-.27,1.72-.34.15-.1.32-.41.58-.55.33-.18.77-.21,1.1-.37.52-.24,1.19-.8,1.54-1.25.31-.51.64-.98.88-1.53-.51.02-.62.64-.88.97ZM40.91,38.21s-.05,0-.06,0c0,0,0,0,0,0,.01-.01.04,0,.06,0ZM40.73,38.57s-.02-.01-.04-.01c.01,0,.02,0,.04.01ZM40.67,38.57s0,0,0,0c0,0,0,0,0,0ZM37.82,47.57c.11-.52.12-.82.3-1.34h0c.29-.85.65-1.82.77-2.72-.16.02-.22-.09-.28.11-.04.12-.03.23-.02.33-.01-.1-.02-.2.02-.33.06-.2.12-.08.28-.11,0-.07,0-.14,0-.21.12-.9.25-1.27.61-2.07l.36-.51c.04-.12.04-.29.07-.42.08-.34.21-.62.36-.93.05-.1.03-.22.2-.18.01-.06,0-.14,0-.21,0-.07.02-.11.03-.13-.01.02-.02.06-.03.13.15.02.16,0,.14-.14,0,0,0,0,0,0,.01-.01,0-.1,0-.14,0-.06.02-.09.03-.11,0,.02-.02.05-.03.11.13.02.16,0,.14-.14,0,0,0,0,0,0,.04-.03.05-.15.07-.21,0,0,0,0,0,0,.15.02.16,0,.14-.14-.01,0-.04,0-.07,0,.03,0,.06,0,.07,0,0,0,0-.05,0-.07.19.03.14-.04.14-.21-.06.05-.08-.06-.11.04.03-.09.05.02.11-.04.01-.01,0-.1,0-.14.22.04.11-.07.14-.14.18-.41.37-.89.57-1.28.04-.07.36-.73.48-.6,0,.17-.03.35-.08.52-.99,3.85-2.1,7.64-3.61,11.32-.36.37-.74,1.9-1.06,2.15-.05.04-.08.04-.14.03-.08-.09.34-1.93.4-2.22ZM38.41,44.76c.02-.06.04-.11.07-.16-.02.05-.04.1-.07.16Z"/>
  <path class="cls-1" d="M61.17,19.38c-.6-.04-1.07-.2-1.74-.14-1,.08-2.09.9-3,.91-.97.01-.19-.6-.02-.93.17-.34.21-.64-.24-.66-.49-.02-1.12.64-1.56.87-1.25.66-.54-.32-.89-.69-.27-.28-.83.33-1.02.45-.34.22-.7.42-1.04.64-.45.3-.83.83-1.47.73-.1-.36.26-1.17-.25-1.26-.56-.09-.56.41-.76.77-.14.25-.33.59-.51.82-.07.08-.08.19-.22.16-.04-.04.19-1,.25-1.11.06-.12.19-.29.28-.48.17-.35,1.09-1.53.39-1.74-.47-.14-.97.5-1.32.74-.43.3-1.57,1.13-2.02,1.19-.95.13-1.13-.49-.76-1.25.32-.67.75-1.02.86-1.86.1-.78-.84-1.21-1.5-.87-.68.36-1.75,1.24-2.36,1.76-1.21,1.03-3.17,3.52-3.31,5.09h0c-.29-.04-.08.2-.07.28.04.54-.03.99.09,1.55.1.5.51,1.16,1.01,1.36.58.23,1.45-.02,1.9-.43.89-.81,1.42-2.42,1.16-3.61-.04-.21-.28-.56-.17-.74.54-.42,1.07-.89,1.78-.98.36-.04.78.32,1.29.25.87-.12,1.52-.75,2.28-1.1-.21.68-.47,1.18-.42,1.92.04.56.12.89.77.7.52-.16.55-.79.89-.86.45-.1.31.32.75.34.82.03,1.58-.62,2.22-1.06.18-.12.27-.36.58-.4.16-.02.37.32.63.41.46.17,1.26.07,1.63-.27.02,1.34,1.7.99,2.55.63.36-.16.97-.64,1.33-.7,1.13-.18,2.59.29,3.83.13.28-.04.63-.22.92-.27.34-.06.82-.02,1.16-.09.31-.07,1.78-.74,1.93-.61.03.13-.07.17-.14.24-.97,1.19-2.22,2.34-3.24,3.52-1.87,2.16-3.48,4.31-4.9,6.75-.12.21-.26.37-.37.64,0,.02-.01.05-.02.09,0-.03,0-.06.02-.09-.18-.05-.17.19-.21.35,0,0,0,0,0,0-.11.42-.56,1.7-.77,2.02.02.15,0,.16-.14.14-.03.27-.08.44-.14.7-.03.1-.04.17-.07.28-.03.12-.18.74-.21.77,0,0,0,0,0,0-.06.06-.11-.15-.14.21.03-.01.05-.03.07-.05-.02.02-.04.04-.07.05,0,.09.01.19,0,.28-.19-.04-.18.07-.07.21h0c-.02.1-.05.19-.07.28h0c-.23,0-.17.11-.21.25-.06.19-.25.53.07.52-.02.07,0,.22-.07.28l-.07.14c0,.06,0,.15,0,.21,0,.01,0,.03,0,.04,0-.01,0-.02,0-.04-.27-.03-.07.1-.07.14,0,0,0,0,0,0,.01.15-.05.45-.07.63-.05.45-.17.91-.14,1.36.01.19.05.59.27.45l1.26-4.67c0-.44.11-.4.19-.68,1.46-5.07,4.77-8.84,8.25-12.6.93-1,1.83-2.11,2.86-3,.54-.47.76-.6,1.4-.83.44-.16,1.88-1.17,2.23-1.5.85-.82,1.65-1.43,2.51-2.2.42-.37.66-.72,1.08-1.07-.41.35-.66.7-1.08,1.07-.87.76-1.66,1.38-2.51,2.2.39.09.38-.16.56-.31.27-.22.46-.42.7-.63.91-.78,1.87-1.41,2.5-2.48,0,0,0,0,0,0,.09-.07.19-.14.28-.21,0,0,0,0,0,0,.64-.5,1.12-1.04,1.67-1.6-.07-.01-.11,0-.16.02.04-.02.09-.04.16-.02.05-.05.09-.09.14-.14h0c.3-.32.38-.34.67-.76.23-.34.49-.29.36-.86-.08-.34-.36-.27-.65-.26-.13,0-.28-.07-.24.14-.07,0-.14,0-.21,0,.04.15-.19.19-.39.23.19-.04.42-.08.39-.23-.16.02-.61.1-.56.28,0,0,0,0,0,0-2.1.85-5.77,4.72-7.47,6.45-.82.84-1.81,2.25-2.94,2.64-1.64.56-4.38,1.21-6.09,1.09ZM44.52,18.29c-.16.29-.31.74-.48.99-.2.29-1.15.97-1.48,1.1-.25.1-.84,0-.93.12-.19.26.65.87.72,1.31.19,1.13-.51,3.3-1.78,3.56-.45.09-1-.73-1.06-1.14-.25-1.8,1.17-3.99,2.3-5.29.73-.85,1.72-1.92,2.67-2.49.14-.09.84-.45.96-.34.02.83-.53,1.5-.92,2.19ZM56.19,36.88s.05-.03.06-.05c0,.02-.02.04-.06.05ZM58.26,30.45s.02-.03.02-.05c0,.02-.01.04-.02.05ZM75.96,12.32c.15-.07.29-.07.36-.15-.07.08-.21.08-.36.15ZM77.84,10.94c-.17.13-.47.41-.62.56-.13.12-.28.3-.42.47.14-.18.29-.35.42-.47.15-.15.46-.43.62-.56.05-.04.09-.08.14-.11-.05.03-.09.07-.14.11ZM79.06,9.47s.03-.04.04-.06h0s-.03.04-.04.06ZM79.11,9.37c.03-.11,0-.35-.04-.42.04.07.07.31.04.42ZM78.98,9.58c-.32.32-.93.07-1.16.27,0,0,0,0,0,0,.23-.19.84.05,1.16-.27ZM77.82,9.88s-.01.02,0,.04c0-.01,0-.02,0-.04ZM70.34,16.63s.22-.13.28-.21c1.34-1.55,3.06-3.17,4.6-4.54.88-.78,1.74-1.24,2.58-1.92,0,0,0-.03,0-.05,0,.03,0,.05,0,.05.51-.06-.12.42-.21.52-.06.06-.06.16-.07.17-.36.38-.8.77-1.19,1.19h0c-.13.14-.4.25-.42.49,0,0,0,0,0,0-.46.26-.98.99-1.39,1.36-.31.27-.67.5-.98.77-.66.56-2.25,2.04-3,2.31-.16.06-.28.06-.21-.14Z"/>
  <path class="cls-1" d="M11.75,15.61c.09,0,.19-.07.28-.07l.14-.07s.15.01.21,0c-.02-.15,0-.16.14-.14,0,0,.17,0,.21,0l.14-.07c.05-.05,1.18-.25,1.39-.31,3.49-1.11,6.98-2.32,10.52-3.29,2.47-.68,4.99-1.25,7.48-1.86.21-.05.37-.22.52-.25.25-.05.6,0,.87-.07-.03.2.08.38.06.57-.06.54-.5,1.61-.65,2.22-.4,1.59-.79,3.17-1.15,4.74-.02.1-.05.19-.07.28-.49,2.18-.95,4.41-1.37,6.6-.11.59-.2,1.08-.29,1.61-.16.95-.27,1.85-.46,2.85-.03.14-.02.63-.04.66l-.07.14c.01.13-.11.92-.14,1.12-.01.07-.02.14-.03.21.01-.07.02-.15.03-.21-.38.03-.15.36-.14.49,0,0,0,0,0,0,0,.07,0,.14,0,.21-.21-.06-.27.55-.14.7,0,0,0,0,0,0-.11.63-.2.96-.21,1.6,0,0,0,0,0,0-.17-.02-.15.01-.14.17l.07.04c-.04.17-.05.54-.07.56l-.07.14c0,.09,0,.19,0,.28,0,.06,0,.14-.05.18.05-.04.04-.12.05-.18-.28-.03-.07.15-.07.21,0,0,0,0,0,0,0,.1.01.25,0,.35,0,.02,0,.03,0,.04,0-.01,0-.03,0-.04-.19-.02-.13,0-.14.14.09,0,.13,0,.14-.01,0,.02-.04.02-.14.01,0,.06,0,.15,0,.21.08.91-.18,1.89-.21,2.82-.05,1.21.09,2.44.21,3.63.02.23-.1,1.42.35,1.19.23-.12.12-.72.14-.98,0-.11.07-.1.07-.1.01-.3,0-.61,0-.91,0-.31-.07-.74-.07-1.12,0-.12,0-.23,0-.35-.01-.02-.02-.05-.03-.07,0,.02.01.05.03.07,0-.27.01-.54,0-.84-.04.07-.06.17-.08.28.01-.11.03-.21.07-.28,0-.14,0-.28,0-.42,0-.15-.05-.39.07-.49-.02-.39.3-3.81.42-3.98h0s.1,0,.14,0c.03-.08-.07-.13-.07-.14-.06-.38.12-.33.14-.4.17-.62.25-1.76.35-2.46,0-.03,0-.07,0-.1,0,.03,0,.07,0,.1.03,0,.13.01.14,0,.01-.02.06-.45.06-.53,0-.12-.06-.09-.06-.1-.06.07-.08.16-.1.24.02-.08.04-.17.1-.24.05-.76.23-1.5.28-2.23.28.04.07-.17.07-.21,0,0,0,0,0,0,.04-.71.2-1.88.35-2.58h0c.16.06.2-.21.2-.32,0-.12-.06-.09-.06-.1.04-.56.25-1.09.28-1.67,0-.08-.02-.18.07-.21,0-.04,0-.09,0-.14,0-.08-.02-.18.07-.21-.02-.85.56-2.42.63-3.42,0-.08-.02-.18.07-.21,0-.09.36-1.74.42-1.81,0-.07-.01-.11,0-.13-.02.02-.02.06,0,.13.03-.04.12.12.14-.14h0c.19-2.14,1.01-4.9,1.59-7.02.14-.51.13-.63.62-.84.86-.38,2.19-.65,3.14-.91,1.71-.47,3.47-.87,5.18-1.38.4-.12.79-.15,1.19-.38,0,0,.01-.01,0-.02,0,.01,0,.02,0,.02.18-.02.4.09.35-.14h0s.09,0,.14,0h0s.04.05.09.05c.24-.01.68-.04.82-.26,0,0-.01-.01-.02-.02,0,.01.02.02.02.02.05,0,.09,0,.14,0h0c.35,0,.16-.1.21-.14-.03,0-.05,0-.07,0,.02,0,.05,0,.07,0,.02-.01.36-.07.42-.07l.14-.07s.05,0,.07,0c-.04-.17.09-.15.2-.18.19-.04.33-.07.47-.09-.14.02-.28.05-.47.09-.12.02-.24,0-.2.18.32-.03.57-.06.89-.13.13-.03.27.06.23-.15.07,0,.14,0,.21,0h0c.14,0,.3.02.44-.02,1.42-.32,2.78-.86,4.22-1.15.22-.05.72.08.65-.29.04,0,.1,0,.14,0,.44.27.89-.1,1.25-.18,1.73-.4,3.51-.71,5.25-1.09,2.51-.55,5.03-1.2,7.56-1.7.2-.04.48.2.34-.37-.45.19-1,.14-1.45.23-.82.16-1.67.43-2.54.53-.58.07-.54-.02-1.12.2-.84.32-1.72.19-2.55.38-.99.23-2.03.42-3.04.66-.12.03-.48.04-.43.23.1,0,.43-.11.64-.12-.22,0-.54.11-.64.12h0c-.09,0-.19,0-.28,0,0,0-.05-.06-.1-.06-.14,0-.46.04-.39.2.1,0,.23-.03.34-.07-.11.04-.24.07-.34.07-.04,0-.1,0-.14,0-.02.04-.05.06-.09.07.04,0,.07-.03.09-.07-.07,0-.24-.21-.21.07-.05,0-.09,0-.14,0-.04,0-.12-.1-.31-.07-.13.02-.28.14-.39.21-.18.02-.37.05-.56.07h0c-.17.02-.35-.05-.35.21.05-.01.12-.02.18-.03-.06.01-.12.02-.18.03-.1.02-.33.06-.42.07-.03.09-.13.07-.21.07-.34.01-.52.13-.7.14l-.14.07s-.24.07-.28.07c-.06.09-.24.12-.28,0-2.76.46-5.5,1.37-8.22,2.07-1.32.34-2.68.61-3.99.96-1.65.44-3.29.96-4.95,1.36l.89-3.89c.05-.78.27-1.57.23-2.35-.08-1.4-.81-1.35-1.6-.42-.95,1.12-1.94,4.27-1.81,5.72.03.41.37,1.06.35,1.33-.02.31-.61.22-.84.27-1.76.4-3.55.94-5.29,1.4-4.09,1.08-8.09,2.37-12.14,3.59.03.17-.34.24-.45.28-.49.17-1.21.41-1.71.49-.11.02-.25.07-.35.07-.03.09-.13.07-.21.07-.05,0-.09,0-.14,0,.03.31-.42.14-.49.14-.05,0-.09,0-.14,0,.05.22-.59.27-.77.28-.07,0-.14,0-.21,0-.11.12-.27.13-.42.14-.05,0-.09,0-.14,0-.26.17-.81.28-1.12.28-.07,0-.14,0-.21,0-.05.1-.19.07-.28.07-.07,0-.14,0-.21,0-.1.08-.35.13-.47.14-.15,0-.21-.07-.23-.07-.09,0-.19,0-.28,0-.07.12-.19.13-.31.14-2.27.18-3.79-.51-5.23-2.24-.06-.07-.09-.25-.12-.26-.09-.05-.44.03-.58-.08-.16.42.06.3.21.42.74.61,1.38,1.39,2.2,1.92,2.11,1.35,4.87.53,7.18.18.14-.02.28-.05.42-.07.25-.14.62-.23.91-.28.04,0,.1,0,.14,0l.02-.03-.02.03s.05,0,.14,0h0ZM29.28,31.3s0,.02,0,.02c0,0,0-.02,0-.02ZM48.4,5.32c.28-.16.61-.19.93-.22-.32.03-.65.06-.93.22ZM45.83,6.03s-.03-.02-.06-.02l-.22.07.22-.07s.04,0,.06.02ZM33.11,5.69c.16-.78,1.26-3.48,1.86-3.93.12-.09.19-.13.35-.1.15,2.29-.64,4.46-1.12,6.66-.18.44-.5.39-.9.46-.31-1.04-.41-2.01-.19-3.09ZM11.65,15.54h0s.03.02.03.02l-.03-.02Z"/>
  <path class="cls-1" d="M92.66,55.23c-.12-.12-1.6-.38-1.89-.45-1.18-.32-2.42-.75-3.61-.99-1-.21-2.1-.27-3.1-.46-4.92-.92-9.76-2.06-14.56-3.33-2.95-.78-6.77-1.98-9.85-1.44-.92.16-1.69.64-2.64.68-.06,0-.1,0-.12,0,.02.01.07,0,.12,0v-.14s0,0,0,0c.24-.16.38-.12.42-.14,0,0-.01,0,0-.03,0,.02,0,.03,0,.03.15.02.16,0,.14-.14-.04.02-.06.04-.08.05.02-.02.04-.03.08-.05.67-.38,1.28-.48,1.95-.77,0,0,0,0,0,0,.09-.02.38.03.42,0,.02-.01-.02-.12,0-.14.1-.11,1.24-.43,1.47-.49h0c.11.13.16.09.14-.07,0,0-.01,0-.02,0,0,0,.01,0,.02,0,.46-.12.93-.18,1.39-.28.88-.18,1.94-.47,2.83-.49.52-.01,1.62.56,2.06.25.29-.2-.2-.66-.4-.72-.96-.28-3-.04-4.01.14-.97.17-2.12.49-3.07.77-.98.29-3.34,1.05-4.07,1.65-.55.45,0,.85.22,1.32.98-.26,2.04-.23,2.94-.74,4.25-.72,8.34,1.54,12.42,2.33,1.88.36,3.73.84,5.55,1.22,3.77.78,7.62,1.34,11.43,2.03,1.11.2,2.36.59,3.51.59.07,0,.45-.06.31-.19ZM59.82,47.89c-.1,0-.17.05-.22.1.05-.05.12-.1.22-.1Z"/>
  <path class="cls-1" d="M56.55,44.75c.12-.22.29-.23.4-.36.18-.22.32-.59.63-.76.06-.03.86-.3.94-.31.63-.1,1.94.14,2.49.49.18.12.49.47.73.54.14.04.34-.02.43.03.03.02.06.16.15.23.12.08.83.44.94.46.3.04-.15-.49-.2-.54-.19-.17-.68-.47-.91-.62-1.61-1.11-2.53-1.45-4.4-.71-.17.07-.36.05-.56.14-.62.27-1.3,1.33-1.52,1.97-.22.61-.35,1.39-.49,2.02-.08.34-.23.67-.26,1.03.09-.01.39.02.42,0,.03-.03.07-.55.1-.7.08-.31.18-.77.28-1.05.07-.21.32-.23.41-.43.15-.35.2-.99.42-1.4Z"/>
  <path class="cls-1" d="M29.12,41c.12-.24.08-.61.07-.87,0-.13.07-.28-.14-.24,0,.37.07.81.07,1.12Z"/>
  <path class="cls-1" d="M29.12,37.79c-.12.09-.07.34-.07.49.31.05.08-.37.07-.49Z"/>
  <path class="cls-1" d="M31.84,17.29c.02-.09.05-.18.07-.28-.19-.06-.2.16-.07.28Z"/>
  <path class="cls-1" d="M52.28,3.97s-.07-.03-.28,0c.04.12.21.09.28,0Z"/>
  <path class="cls-1" d="M57.02,33.61c.03-.1.04-.18.07-.28-.19-.06-.2.16-.07.28Z"/>
  <path class="cls-1" d="M53.39,3.69c.08,0,.18.02.21-.07-.04,0-.25-.22-.21.07Z"/>
  <path class="cls-1" d="M32.19,18.89c-.09.03-.06.13-.07.21.28.04.07-.15.07-.21Z"/>
  <path class="cls-1" d="M31.49,22.52c-.09.03-.07.13-.07.21.29.04.07-.16.07-.21Z"/>
  <path class="cls-1" d="M31.35,23.08c.28.03.08-.14.07-.21-.09.03-.07.13-.07.21Z"/>
  <path class="cls-1" d="M29.68,29.01s-.1,0-.14,0c-.03.07.07.13.07.14l.07-.14Z"/>
  <path class="cls-1" d="M46.63,5.85s.1.11.14.07c.02-.02-.01-.11,0-.14l-.14.07Z"/>
  <path class="cls-1" d="M52.56,3.76s.02.12,0,.14l.14-.07s-.1-.11-.14-.07Z"/>
  <path class="cls-1" d="M57.37,32.49s-.11-.12-.14.14c.15.02.16,0,.14-.14Z"/>
  <path class="cls-1" d="M56.32,36.4s-.12-.02-.14,0c-.04.05.07.13.07.14l.07-.14Z"/>
  <path class="cls-1" d="M28.84,34.03s-.1,0-.14,0c-.03.07.07.13.07.14l.07-.14Z"/>
  <path class="cls-1" d="M40.16,40.08c.1-.23.28-.66.33-.89-.16-.04-.15.08-.2.18-.15.31-.28.59-.36.93.18,0,.18-.1.23-.22Z"/>
</svg>